<?xml version="1.0" encoding="utf-8"?>
<!-- Generator: Adobe Illustrator 21.1.0, SVG Export Plug-In . SVG Version: 6.00 Build 0)  -->
<svg version="1.1" id="momo" xmlns="http://www.w3.org/2000/svg" xmlns:xlink="http://www.w3.org/1999/xlink" x="0px"
	 y="0px" viewBox="0 0 103 101" style="enable-background:new 0 0 103 101;" xml:space="preserve">
<style type="text/css">
	.st0{fill:#231815;}
	.st1{fill:#E96BA2;}
	.st2{fill:#E40212;}
	.st3{fill:url(#SVGID_1_);}
	.st4{fill:url(#SVGID_2_);}
	.st5{fill:#EDBAD1;}
	.st6{fill:#E54490;}
</style>
<title>ももたん</title>
<polygon class="st0" points="85.9,45.3 86,44.4 85.9,43.6 85.7,42.7 85.7,41.8 85.4,41 85.3,40.2 84.9,39.4 84.8,38.5 84.5,37.7 
	84.1,36.9 83.7,36.2 83.3,35.4 82.8,34.7 82.4,33.9 81.8,33.3 81.3,32.6 80.9,31.9 80.2,31.3 79.6,30.6 79.1,30 78.5,29.3 
	77.7,28.9 77.1,28.3 76.5,27.7 76.4,27.8 75.7,27.3 75,26.8 74.3,26.1 73.6,25.7 72.7,25.4 72,24.8 71.2,24.5 70.4,24 69.7,23.6 
	68.8,23.5 68,23.1 67.1,22.8 66.3,22.6 65.5,22.2 64.6,22 63.8,21.8 62.9,21.6 62,21.5 61.2,21.2 60.3,21.2 59.4,21 58.5,20.8 
	57.7,20.7 56.8,20.7 55.9,20.5 55,20.6 54.1,20.5 54.1,20.6 53.3,20.5 52.4,20.5 51.5,20.8 50.7,20.6 49.8,20.7 48.9,20.8 48.1,21 
	47.2,21.2 46.4,21.4 45.5,21.6 44.7,21.7 43.8,21.9 43,22.1 42.2,22.4 41.3,22.6 40.5,22.9 39.7,23.2 38.9,23.6 38.1,23.9 
	37.3,24.2 36.6,24.6 35.8,25 35,25.4 34.3,25.9 33.5,26.3 32.8,26.7 32.1,27.2 32,27.2 31.4,27.8 30.7,28.3 30.1,28.9 29.5,29.5 
	28.7,30 28.2,30.6 27.6,31.3 27.1,32 26.5,32.6 26,33.3 25.5,34 25.1,34.7 24.6,35.5 24.1,36.1 23.8,37 23.3,37.7 23,38.5 
	22.7,39.3 22.4,40.1 22.3,41 21.9,41.7 21.6,42.6 21.7,43.5 21.6,44.3 21.5,44.3 20.8,44.2 20.1,44.2 20.1,43.2 20.5,42.4 
	20.5,41.5 20.8,40.7 21.1,39.9 21.4,39.1 21.8,38.3 21.9,37.4 22.4,36.7 22.7,35.8 23.2,35.1 23.6,34.3 24.1,33.6 24.5,32.9 
	25.1,32.2 25.5,31.4 26.2,30.8 26.7,30.1 27.4,29.6 28,29 28.5,28.3 29.3,27.9 30,27.3 30.6,26.6 31.3,26.2 31.3,26.1 32,25.6 
	32.7,25.2 33.5,24.8 34.2,24.3 34.9,23.8 35.7,23.5 36.5,23 37.3,22.7 38.1,22.4 38.8,21.9 39.7,21.8 40.5,21.5 41.3,21.2 
	42.2,20.9 43,20.7 43.8,20.4 44.7,20.4 45.5,20.1 46.4,19.9 47.2,19.8 48.1,19.7 49,19.6 49.8,19.6 50.7,19.4 51.5,19.3 52.4,19.4 
	53.3,19.2 54.1,19.1 54.1,19.1 55,19.3 55.9,19.2 56.8,19.4 57.7,19.4 58.5,19.4 59.4,19.7 60.3,19.8 61.1,20 62,19.9 62.9,20.1 
	63.7,20.4 64.6,20.5 65.5,20.8 66.3,21 67.1,21.5 68,21.6 68.8,21.9 69.6,22.4 70.5,22.6 71.2,23.1 72,23.4 72.8,23.9 73.6,24.3 
	74.3,24.8 75.1,25.2 75.8,25.7 76.6,26.1 77.3,26.7 77.3,26.7 78,27.2 78.6,27.8 79.3,28.3 79.9,29 80.5,29.6 81.2,30.2 81.8,30.9 
	82.4,31.5 82.9,32.2 83.3,33 83.8,33.7 84.3,34.5 84.6,35.2 85.1,36 85.4,36.8 85.9,37.5 86.3,38.4 86.5,39.2 86.5,40.1 86.9,40.9 
	87.1,41.8 87,42.7 87.1,43.5 87.3,44.4 87.4,45.3 87.3,45.4 86.6,45.2 85.9,45.2 "/>
<path class="st0" d="M18.2,56.3c-0.3,0-0.6,0-0.9,0c-0.3,0-0.5-0.2-0.8-0.2s-0.6,0-0.9-0.1s-0.5-0.3-0.8-0.4s-0.6-0.1-0.8-0.2
	s-0.6-0.2-0.8-0.3v0.1c-0.3-0.1-0.5-0.3-0.8-0.4l-0.7-0.5c-0.2-0.2-0.4-0.5-0.6-0.7s-0.6-0.2-0.8-0.4c-0.2-0.2-0.4-0.5-0.6-0.7
	l-0.1,0.1C9.4,52.5,9.2,52.3,9,52c-0.2-0.2-0.5-0.4-0.7-0.7v-0.1c0.4-0.3,0.5-0.2,0.9-0.4c0.3-0.2,0.6-0.4,0.9-0.5
	c0.1,0.1,0.2,0.2,0.4,0.4s0.2,0.4,0.4,0.6H11c0.2,0.2,0.4,0.3,0.7,0.4s0.4,0.4,0.6,0.5s0.4,0.3,0.7,0.4l0,0l0.8,0.5
	c0.3,0.1,0.5,0.3,0.8,0.5s0.6,0.2,0.9,0.3s0.6,0.2,0.9,0.2s0.6,0,0.9,0c0.3,0.1,0.6,0.2,0.9,0.2l0,0c0.3,0,0.5-0.1,0.8-0.2
	c0.3,0,0.5-0.1,0.8-0.1c0.2-0.1,0.6,0.1,0.8,0s0.5-0.3,0.7-0.4l0.1-0.1c0.2,0.5,0.1,0.5,0.4,0.9s0.4,0.4,0.5,0.9
	c-0.3,0.1-0.5,0.3-0.8,0.4c-0.2,0.1-0.5,0.2-0.8,0.3c-0.3,0.1-0.5,0.1-0.8,0.1c-0.3,0-0.5,0.1-0.8,0.1s-0.5,0.1-0.8,0.1l0,0l0.1-0.1
	L18.2,56.3z"/>
<path class="st0" d="M86.8,58.5c-0.3,0-0.7-0.1-1-0.2c-0.3,0.1-0.7,0.1-1,0.1c-0.3,0-0.6-0.3-0.9-0.3v0.1h0.1c0.1-0.5-0.1-0.5,0-1
	c0-0.4,0.2-0.7,0.3-1c0.3,0.1,0.5,0.1,0.8,0.2s0.5-0.1,0.8-0.1s0.5,0.2,0.8,0.2v-0.2c0.3,0,0.6-0.1,0.9-0.1c0.3-0.1,0.6-0.1,0.9-0.2
	c0.3,0,0.6-0.1,0.9-0.2c0.3-0.1,0.5-0.3,0.8-0.4c0.3-0.2,0.6-0.2,0.8-0.4l-0.1-0.1c0.2-0.2,0.4-0.4,0.6-0.6s0.6-0.2,0.8-0.4
	s0.3-0.5,0.6-0.7s0.3-0.5,0.5-0.7s0.4-0.4,0.6-0.7s0.4-0.5,0.5-0.7h-0.1c0.4,0.3,0.5,0.2,0.9,0.5c0.3,0.1,0.6,0.4,0.8,0.6
	c-0.2,0.2-0.3,0.3-0.5,0.6s-0.2,0.6-0.3,0.8s-0.4,0.4-0.6,0.6s-0.4,0.4-0.6,0.6s-0.2,0.6-0.4,0.8S93,55.8,92.7,56s-0.4,0.4-0.7,0.5
	v-0.1c-0.2,0.2-0.4,0.3-0.7,0.5s-0.5,0.2-0.8,0.3s-0.4,0.4-0.7,0.5s-0.5,0.2-0.8,0.3s-0.5,0.1-0.8,0.2c-0.3,0.1-0.5,0.1-0.8,0.2
	c-0.3,0-0.6-0.1-0.8-0.1v-0.1l-0.1,0.1C86.7,58.5,86.8,58.5,86.8,58.5z"/>
<path class="st0" d="M23.3,75.5c0.3,0,0.6,0,0.9,0s0.6-0.1,0.9-0.1s0.6-0.1,0.9-0.1c0.3,0,0.6,0.2,0.9,0.1c0.3,0,0.5-0.3,0.8-0.3
	c0.3-0.1,0.6,0,0.9,0s0.5-0.2,0.8-0.3c0.3-0.1,0.5-0.3,0.8-0.4c0.3-0.1,0.5-0.2,0.8-0.3c0.3-0.1,0.6-0.2,0.8-0.3v0.1
	c0.3-0.1,0.4-0.4,0.7-0.6s0.4-0.4,0.7-0.6s0.6-0.2,0.8-0.3s0.4-0.5,0.6-0.7c0.2-0.2,0.3-0.5,0.5-0.7c0.2-0.2,0.5-0.4,0.6-0.6
	c0.2-0.2,0.3-0.5,0.5-0.8c0.1-0.3,0.2-0.6,0.3-0.8h-0.1c0.1-0.3,0.2-0.6,0.2-0.9c0.1-0.3,0.1-0.6,0.1-0.9h-0.1
	c0.5-0.1,0.5-0.1,1-0.1c0.5-0.1,0.5-0.2,1-0.1c0,0.3,0,0.6-0.1,0.9c0,0.3,0.2,0.6,0.2,0.9c-0.1,0.3-0.2,0.6-0.3,0.8l0,0
	c-0.1,0.3-0.2,0.5-0.3,0.8c-0.2,0.2-0.3,0.5-0.5,0.7c-0.1,0.3-0.2,0.5-0.3,0.8c-0.2,0.2-0.4,0.4-0.6,0.6c-0.2,0.2-0.2,0.6-0.4,0.8
	c-0.2,0.2-0.5,0.3-0.7,0.5c-0.2,0.2-0.3,0.5-0.5,0.7s-0.6,0.2-0.8,0.3s-0.5,0.3-0.8,0.4s-0.4,0.5-0.6,0.7l0,0
	c-0.3,0.2-0.6,0.1-0.9,0.3c-0.3,0.1-0.5,0.4-0.8,0.5s-0.6,0-0.9,0.1s-0.5,0.3-0.8,0.4s-0.6,0-0.9,0.1s-0.6,0-0.9,0.1
	s-0.6,0.3-0.9,0.4s-0.6-0.2-0.9-0.2c-0.3,0-0.6,0.1-0.9,0.1c-0.3,0-0.6,0-0.9,0s-0.6-0.1-0.9-0.2l-0.1,0.1c0.1-0.5,0.2-0.5,0.3-1
	C23.2,75.9,23.2,75.9,23.3,75.5C23.3,75.3,23.3,75.5,23.3,75.5z"/>
<path class="st0" d="M68.3,80.5c-0.3-0.2-0.5-0.4-0.8-0.6c-0.2-0.2-0.4-0.5-0.6-0.8c-0.2-0.2-0.4-0.5-0.6-0.8
	c-0.1-0.3-0.1-0.7-0.3-0.9c-0.1-0.3-0.3-0.6-0.4-0.9l0,0c-0.1-0.3-0.2-0.5-0.3-0.8c-0.1-0.3-0.3-0.5-0.3-0.8c-0.1-0.3,0-0.6-0.1-0.8
	s-0.3-0.5-0.3-0.8c0-0.3,0-0.6,0-0.9s-0.1-0.5-0.2-0.8c0-0.3-0.1-0.6-0.1-0.8s0-0.6-0.1-0.8s0-0.6,0-0.8c0-0.3,0-0.6,0-0.8v0.1l0,0
	h1c0.5,0,0.6-0.4,1-0.2c0,0.3-0.1,0.7-0.1,1c0,0.3,0,0.6,0,0.9s0.2,0.6,0.2,0.9c0,0.3-0.1,0.6,0,1c0.1,0.3,0.2,0.6,0.2,0.9
	c0.1,0.3,0.3,0.6,0.4,0.9l0,0c0.1,0.3,0.1,0.5,0.2,0.8c0.1,0.3,0.1,0.6,0.2,0.8c0.1,0.3,0.3,0.5,0.4,0.7c0.1,0.3,0.2,0.5,0.3,0.8
	s0.1,0.6,0.2,0.8s0.4,0.4,0.6,0.6c0.1,0.2,0.3,0.5,0.5,0.7l0,0c0.3,0.2,0.5,0.3,0.8,0.4c0.2,0.2,0.5,0.3,0.8,0.5
	c0.3,0.1,0.6,0.2,0.8,0.3c0.3,0,0.6-0.1,0.9-0.1l0,0c0.3,0,0.5,0,0.8,0c0.3,0,0.5,0,0.8,0c0.3-0.1,0.5-0.3,0.7-0.4s0.5-0.1,0.8-0.2
	l0.7-0.3v0.1c0.2,0.5,0.3,0.4,0.5,0.9c0.2,0.3,0.2,0.7,0.3,1c-0.3,0.1-0.4,0.3-0.6,0.3s-0.5,0.2-0.8,0.3S75.6,82,75.4,82
	s-0.5,0.3-0.8,0.3c-0.3,0-0.6,0-0.8-0.1c-0.3,0-0.6,0.2-0.8,0.2v-0.1v0.1l0,0c-0.3,0-0.6,0-0.8,0c-0.3-0.1-0.5-0.2-0.8-0.3
	c-0.3-0.1-0.5-0.2-0.8-0.3c-0.3-0.1-0.5-0.2-0.7-0.4c-0.3-0.1-0.5-0.2-0.8-0.3c-0.2-0.2-0.3-0.4-0.5-0.6L68.3,80.5z"/>
<polygon class="st0" points="24.7,41.6 23.8,40.8 22.6,40.6 21.6,40.3 20.5,39.9 19.5,40.2 18.6,40.9 17.9,41.6 17,42.3 16.5,43.3 
	16.4,44.4 16.1,45.5 16.5,46.5 16.3,47.7 16.6,48.8 17.1,49.8 17.8,50.6 18.8,50.9 19.6,51.5 20.6,51.7 21.6,52.3 21.7,51.1 
	22.2,50.1 22.6,49 22.9,48 22.9,46.8 23.2,45.8 23.8,44.8 23.8,43.7 24.5,42.7 "/>
<polygon class="st0" points="83.6,39.7 84.3,39.1 85.4,39.3 86.5,39.3 87.6,39.6 88.4,40.3 88.9,41.2 89.4,42.1 89.6,43.2 
	89.6,44.2 90,45.2 89.8,46.3 89.9,47.3 89.6,48.3 88.7,49 88.1,49.7 87.1,50.3 86.1,50.3 85.2,50.3 84.7,49.3 84.6,48.2 84.7,47.1 
	84.6,46 84.2,45 83.9,43.9 84,42.8 83.8,41.7 83.3,40.7 "/>
<path class="st0" d="M21.5,44.3L21.5,44.3L21.5,44.3h0.1H21.5L21.5,44.3z"/>
<polygon class="st1" points="45.7,23.9 46.6,23.7 46.9,23.1 48,22.5 48.3,22 49,21.6 49.2,21 49.7,20.2 50.2,19.5 50.9,17.8 
	51.5,18.4 51.7,19.2 51.9,19.9 52.7,20.5 53.4,21 53.5,21.6 54.1,22.1 55.1,22.4 55,23 55.7,23.3 56.3,23.5 57,23.6 57.9,23.6 
	58.7,23.6 59.6,23.8 60.4,24 61.3,24.1 62.1,24.3 63,24.5 63.9,24.5 64.7,24.8 65.6,24.8 66.4,25 67.2,25.5 68.1,25.6 68.9,25.9 
	69.7,26.3 70.5,26.6 71.3,27 72.1,27.2 72.8,27.7 73.6,28.1 74.4,28.5 75.1,28.9 75.8,29.4 76.5,30 77.2,30.5 77.9,31 78.6,31.5 
	79.2,32.2 79.9,32.7 80.4,33.4 81,34 81.4,34.8 82.1,35.4 82.4,36.2 82.9,36.9 83.3,37.7 83.7,38.5 83.9,39.3 84.3,40.1 84.6,40.9 
	84.8,41.8 85,42.6 85.3,43.4 85.4,44.3 85.4,45.2 85.6,46 85.8,46.9 85.7,47.8 85.6,48.6 85.8,49.5 85.7,50.4 85.6,51.2 85.4,52.1 
	85.2,52.9 85,53.8 84.9,54.6 84.7,55.5 84.4,56.3 84,57.1 83.7,57.9 83.3,58.7 83.1,59.5 82.8,60.3 82.2,61 81.7,61.7 81.3,62.5 
	80.8,63.2 80.2,63.8 79.7,64.5 79,65.1 78.3,65.6 77.7,66.2 76.9,66.6 76.1,67 75.4,67.6 74.6,67.8 73.8,68.2 73,68.6 72.1,68.7 
	71.3,69.1 70.4,69.3 69.6,69.7 68.8,69.9 67.9,70 67,70.2 66.1,70.1 65.3,70.4 64.4,70.3 63.5,70.4 62.6,70.6 61.8,70.5 60.9,70.4 
	60,70.2 59.1,70.1 58.3,70 57.4,69.7 56.6,69.3 55.8,69.1 55,68.7 54.2,68.4 53.5,67.9 52.7,67.4 51.9,67 51.3,66.4 50.7,65.8 
	50,65.2 49.5,64.5 49,63.8 48.5,63 48,63.7 47.4,64.3 46.7,64.9 46.2,65.6 45.5,66.1 44.8,66.6 44,67 43.3,67.6 42.5,67.8 
	41.7,68.2 40.8,68.4 40,68.7 39.1,68.8 38.3,68.9 37.4,68.9 36.5,69 35.7,68.8 34.8,68.7 33.9,68.6 33.1,68.4 32.2,68.2 31.5,67.8 
	30.7,67.4 29.9,67.1 29.1,66.6 28.4,66.2 27.6,65.8 27,65.1 26.4,64.5 25.7,64 25.1,63.3 24.6,62.6 24.1,61.9 23.7,61.1 23.1,60.5 
	22.6,59.7 22.2,58.9 21.9,58.1 21.8,57.2 21.6,56.4 21.2,55.6 21.1,54.7 21.1,53.8 21,53 20.8,52.1 20.9,51.2 21,50.3 21.1,49.5 
	21.1,48.6 21.5,47.8 21.6,46.9 21.7,46 22,45.2 22.2,44.3 22.7,43.6 22.9,42.7 23.3,41.9 23.7,41.2 24,40.3 24.4,39.6 24.9,38.8 
	25.4,38.1 25.9,37.4 26.4,36.7 26.8,35.9 27.3,35.2 27.9,34.5 28.5,33.9 29.1,33.2 29.8,32.7 30.4,32 31.1,31.5 31.6,30.8 
	32.3,30.3 33.1,29.9 33.8,29.3 34.5,28.7 35.3,28.3 35.9,27.8 36.7,27.4 37.5,27 38.3,26.5 39.1,26.2 39.9,25.8 40.7,25.5 
	41.5,25.3 42.3,24.9 43.1,24.5 44,24.3 44.8,24.1 45.7,23.9 "/>
<path class="st0" d="M62.6,71.3L62.6,71.3l-1.8-0.2h-0.1L59.9,71l-0.8-0.1H59l-0.9-0.2H58l-0.8-0.3h-0.1l-0.8-0.3l-0.8-0.3h-0.1
	l-0.7-0.4l-0.8-0.3c-0.1,0-0.1,0-0.2-0.1l-1.4-1l-0.8-0.4c-0.1,0-0.2-0.1-0.2-0.1L50.8,67l-1.3-1.2l-0.1-0.1L48.8,65v-0.1l-0.4-0.6
	l-0.5,0.5l-0.5,0.5l-0.5,0.7c0,0.1-0.1,0.1-0.2,0.2L46,66.8l0,0l-0.7,0.5l-0.1,0.1l-0.7,0.3l-0.6,0.5c-0.1,0.1-0.1,0.1-0.2,0.1
	l-0.8,0.3L42,68.9c-0.1,0-0.1,0-0.2,0.1L41,69.1l-0.7,0.3c-0.1,0-0.1,0.1-0.2,0.1l-1.7,0.2h-0.1h-0.8l-0.8,0.1c-0.1,0-0.2,0-0.3,0
	l-0.8-0.2l-0.8-0.1l-0.8-0.1h-0.1l-0.9-0.2L32.1,69l-0.2-0.1l-0.8-0.4l-0.7-0.4l-0.8-0.3l-0.1-0.1l-0.7-0.5L28,66.8l-0.8-0.4
	c-0.1,0-0.2-0.1-0.2-0.2l-0.6-0.6l0,0L25.9,65l-0.6-0.4c-0.1,0-0.1-0.1-0.1-0.1l-0.6-0.6c0,0-0.1-0.1-0.1-0.1L24,63l-0.5-0.7l0,0
	l-0.4-0.7L22.5,61c0,0-0.1-0.1-0.1-0.2l-0.8-1.5v-0.1l-0.3-0.8c0-0.1,0-0.1,0-0.2l-0.1-0.8l-0.2-0.7l-0.4-0.7c0-0.1-0.1-0.2-0.1-0.3
	l-0.1-0.9v-0.9l-0.2-0.8c0,0,0,0,0,0l-0.1-0.9c0-0.1,0-0.1,0-0.2v-0.9c0,0,0-0.1,0-0.1l0.1-0.8v-0.8l0-0.9c0-0.1,0-0.2,0.1-0.3
	l0.3-0.8l0.1-0.7l0.1-0.8c0-0.1,0-0.1,0-0.2l0.3-0.8l0.2-0.8c0-0.1,0.1-0.2,0.1-0.3l0.4-0.6l0.2-0.7c0-0.1,0-0.1,0-0.2l0.4-0.8l0,0
	l0.4-0.7l0.3-0.8c0,0,0-0.1,0-0.1l0.4-0.8l0.4-0.8c0,0,0-0.1,0-0.1l0.5-0.7l0.5-0.7l0.4-0.7l0,0l1-1.5l0-0.1l0.6-0.7l0.1-0.1
	l0.6-0.5l0.5-0.6c0,0,0.1-0.1,0.1-0.1l0.6-0.5l0.5-0.6l0.2-0.1l0.6-0.4l0.5-0.6c0-0.1,0.1-0.1,0.1-0.1l0.7-0.5l0.1-0.1l0.7-0.4
	l0.6-0.5l0.6-0.6c0.1-0.1,0.1-0.1,0.2-0.1l0.7-0.4l0.6-0.5l0.1-0.1l0.8-0.4h0.1l0.8-0.3l0.7-0.4c0.1-0.1,0.2-0.1,0.3-0.2l0.8-0.4
	l0.8-0.4h0.1l1.6-0.5l0.7-0.4h0.1l0.8-0.3l0.8-0.3h0.1l1.7-0.4h0.1l0.6-0.2l0.2-0.3c0.1-0.1,0.2-0.2,0.3-0.3l1-0.5l0.2-0.3l0.2-0.1
	l0.4-0.3l0.1-0.3c0,0,0-0.1,0.1-0.1l0.5-0.9l0,0l0.5-0.6l0.6-1.6c0.1-0.3,0.3-0.4,0.5-0.5c0.3-0.1,0.5,0,0.7,0.2l0.6,0.6
	c0.1,0.1,0.2,0.2,0.2,0.4l0.2,0.8l0.1,0.4l0.6,0.5l0.7,0.5c0.2,0.1,0.3,0.3,0.3,0.5v0.2l0.3,0.3l0.8,0.3c0.3,0.1,0.5,0.4,0.5,0.8
	l0,0l0.2,0.1l0.5,0.2l0.5,0.1l0.8-0.1h0.1h0.9h0.1l1.7,0.3l0.8,0.1l0,0l1.6,0.3h0.8c0.1,0,0.2,0,0.3,0.1l0.7,0.3h0.7
	c0.1,0,0.1,0,0.2,0l0.8,0.2c0.1,0,0.1,0,0.2,0.1l0.6,0.4l0.7,0.1c0.1,0,0.1,0,0.2,0.1l0.8,0.3h0.1l0.7,0.4l0.8,0.3l0.8,0.3l0.8,0.2
	c0.1,0,0.2,0.1,0.3,0.1l0.7,0.5l2.3,1.2h0.1l0.7,0.5l0.1,0l0.7,0.6l0.7,0.5l1.4,1l0.1,0.1l0.5,0.6l0.7,0.4c0.1,0.1,0.1,0.1,0.2,0.2
	l0.5,0.7l0.5,0.6l0.1,0.1l0.4,0.7l0.6,0.5c0.1,0.1,0.2,0.2,0.2,0.3l0.3,0.7l0.4,0.7l0,0l0.5,0.7c0,0,0.1,0.1,0.1,0.1l0.3,0.8
	c0,0,0,0.1,0,0.1l0.2,0.8l0.4,0.7c0,0,0,0.1,0,0.1l0.3,0.8c0,0,0,0.1,0,0.1l0.4,1.7l0.2,0.8c0,0,0,0,0,0.1l0.2,0.9c0,0,0,0.1,0,0.1
	v0.8l0.2,0.8l0,0l0.2,0.9c0,0.1,0,0.1,0,0.2l-0.2,1.6l0.2,0.8c0,0.1,0,0.2,0,0.3l-0.1,0.8L86.1,51c0,0,0,0.1,0,0.1L86,52v0.1
	l-0.3,0.8l-0.3,1.7l0,0l-0.2,0.8c0,0,0,0,0,0.1l-0.3,0.8c0,0,0,0,0,0.1l-0.7,1.6l-0.3,0.8l-0.2,0.8v0.1l-0.3,0.8
	c0,0.1-0.1,0.2-0.2,0.2l-0.6,0.6l-0.4,0.6l-0.3,0.8c0,0.1-0.1,0.2-0.1,0.2L80.6,64l-0.4,0.7c0,0.1-0.1,0.1-0.1,0.2l-0.7,0.6
	l-0.1,0.1l-0.7,0.4l-0.5,0.6c0,0.2,0,0.4-0.1,0.5l-0.8,0.3l-0.7,0.3l-0.6,0.5c-0.1,0.1-0.2,0.1-0.3,0.2l-0.8,0.3l-0.7,0.4l-0.8,0.4
	c-0.1,0-0.1,0.1-0.2,0.1l-0.8,0.1l-0.7,0.3h-0.1L70.7,70L70,70.3h-0.1L69,70.6h-0.2H68l-0.8,0.2C67.2,70.9,67.1,71,67,71l-0.7-0.1
	l-0.7,0.3c-0.1,0-0.2,0-0.4,0l-0.8-0.1l-0.8,0.1l-0.8,0.2L62.6,71.3z M61,69.6l1.6,0.1l0.8-0.1h0.1l0.9-0.1h0.2l0.7,0.1l0.7-0.3
	c0.1,0,0.2,0,0.3,0l0.8,0.1l0.7-0.2h0.1l0.8,0l0.7-0.2l0.7-0.4l0.2-0.1l0.8-0.2l0.8-0.3L72,68l0.8-0.1l0.7-0.3l0.8-0.4l0.1-0.1
	l0.7-0.2l0.6-0.5c0,0,0.1-0.1,0.1-0.1l0.8-0.4h0.1l0.7-0.3l0.5-0.5c0-0.1,0.1-0.1,0.2-0.1l0.7-0.4l0.5-0.6l0.4-0.7
	c0,0,0.1-0.1,0.1-0.1l1.1-1.1l0.3-0.7c0,0,0-0.1,0-0.1l0.5-0.7c0,0,0.1-0.1,0.1-0.1l0.5-0.5l0.3-0.6l0.2-0.8c0,0,0-0.1,0-0.1
	l0.3-0.8l0,0l0.7-1.5l0.3-0.8l0.2-0.8l0.3-1.7c0,0,0-0.1,0-0.1l0.3-0.8l0.1-0.8l0.1-0.8l0,0l0.1-0.7l-0.2-0.8c0-0.1,0-0.2,0-0.2
	l0.3-1.7l-0.1-0.7l-0.2-0.8c0-0.1,0-0.1,0-0.2v-0.8l-0.1-0.7l-0.2-0.8l-0.4-1.7l-0.3-0.7l-0.4-0.7c0-0.1-0.1-0.1-0.1-0.2L83,38.7
	L82.7,38l-0.4-0.7l-0.5-0.7c0,0-0.1-0.1-0.1-0.2l-0.3-0.7l-0.5-0.5c-0.1,0-0.1-0.1-0.1-0.2l-0.4-0.7l-0.5-0.6v-0.1l-0.4-0.6
	l-0.6-0.4l-0.1-0.1L78.1,32l-1.3-1l-0.7-0.5L75.4,30l-0.7-0.4L74,29.2l-1.5-0.8h-0.1l-0.6-0.4l-0.7-0.2H71l-0.8-0.3l-0.8-0.3h-0.1
	l-0.7-0.4l-0.7-0.3l-0.8-0.1c-0.1,0-0.2,0-0.3-0.1l-0.7-0.4l-0.7-0.2h-0.8c-0.1,0-0.2,0-0.3-0.1l-0.7-0.3H63h-0.2L61.2,25l-0.8-0.1
	l0,0l-1.6-0.3h-0.8L57,24.4c-0.1,0-0.1,0-0.2,0l-0.7-0.1H56L55.5,24h-0.1l-0.7-0.3c-0.3-0.1-0.5-0.4-0.4-0.7l-0.4-0.1
	c-0.1,0-0.1-0.1-0.2-0.1L53,22.2c-0.2-0.1-0.3-0.3-0.3-0.5v-0.2l-0.4-0.3l-0.8-0.6c-0.1-0.1-0.2-0.2-0.3-0.4L51,19.6v0.2
	c0,0.1-0.1,0.1-0.1,0.2l-0.5,0.7l-0.5,0.8l-0.2,0.5c-0.1,0.1-0.1,0.3-0.3,0.3l-0.5,0.4L48.6,23c-0.1,0.1-0.1,0.1-0.2,0.2l-0.9,0.5
	l-0.3,0.4c-0.1,0.2-0.3,0.3-0.5,0.4l-0.8,0.2l0,0L44.2,25l-0.8,0.3l-0.8,0.3L41.9,26h-0.1l-1.6,0.5l-0.7,0.4l0,0l-0.8,0.3L38,27.6
	l-0.1,0.1L37.1,28l-0.7,0.4l-0.6,0.5c0,0-0.1,0.1-0.1,0.1L35,29.3l-0.5,0.5c0,0,0,0.1-0.1,0.1l-0.7,0.5l-0.1,0.1l-0.7,0.4l-0.6,0.4
	L31.7,32c-0.1,0.1-0.1,0.1-0.2,0.2l-0.6,0.4l-0.5,0.6l-0.1,0.1l-0.6,0.5l-0.5,0.6c0,0-0.1,0.1-0.1,0.1L28.5,35L28,35.6l-1,1.5
	l-0.4,0.7v0.1L26,38.6l-0.5,0.7L25.1,40l-0.4,0.7l-0.3,0.8v0.1L24,42.3L23.7,43l-0.2,0.8c0,0.1-0.1,0.2-0.1,0.3l-0.4,0.6l-0.2,0.7
	c0,0,0,0.1,0,0.1l-0.3,0.7L22.4,47c0,0,0,0,0,0.1l-0.1,0.9c0,0.1,0,0.1,0,0.2L22,48.8v0.8l-0.1,0.9c0,0,0,0,0,0.1l-0.1,0.8v0.8
	l0.1,0.8l0.2,0.8c0,0.1,0,0.1,0,0.2v0.8l0,0.7l0.3,0.7c0,0,0,0.1,0,0.1l0.2,0.8c0,0,0,0.1,0,0.1l0.1,0.8l0.3,0.7l0.6,1.4l0.5,0.6
	c0,0,0.1,0.1,0.1,0.1l0.5,0.7l0.5,0.7l0,0l0.4,0.7l0.5,0.5l0.7,0.5c0.1,0.1,0.2,0.2,0.2,0.3l0.5,0.7l0.5,0.5l0.7,0.3h0.1l0.8,0.5
	l0,0l0.7,0.4l0.7,0.3h0l0.8,0.4l0,0l0.7,0.4l0.7,0.1l0.8,0.2l0.8,0.1h0.1l0.9,0.1h0.1l0.7,0.2l0.7-0.1c0.1,0,0.1,0,0.2,0h0.8
	l1.6-0.2l0.7-0.3c0.1,0,0.1,0,0.2,0l0.8-0.1l0.7-0.3l0,0l0.7-0.3l0.6-0.5c0,0,0.1-0.1,0.2-0.1l0.7-0.4l0.7-0.4l0.6-0.4l0.4-0.6
	c0,0,0.1-0.1,0.1-0.1l0.6-0.6l0,0l0.6-0.5l0.5-0.7c0.2-0.2,0.4-0.3,0.7-0.3c0.3,0,0.5,0.2,0.6,0.4l0.4,0.8l0.5,0.7l0.5,0.6l1.3,1.2
	l0,0l0.5,0.5l0.7,0.3l0.1,0.1l1.4,1l0.7,0.3h0.1l0.7,0.4l0.8,0.2h0.1l0.8,0.3l0.8,0.3l0.8,0.2l0.8,0.1h0.1L61,69.6z"/>
<path class="st0" d="M65.4,40.5c-0.1-0.1-0.2-0.1-0.3-0.1H63c-0.1,0-0.1,0-0.2,0c0-0.2-0.2-0.4-0.4-0.4h-0.8c-0.2,0-0.4,0.1-0.4,0.4
	c0,0.9-0.3,1.7-0.7,2.4c0,0.1,0,0.2,0,0.3c0,0.1,0.1,0.2,0.2,0.2l0.8,0.3c0.2,0.1,0.4,0,0.5-0.2c0.3-0.6,0.5-1.2,0.7-1.9l0,0
	c0.1,0.1,0.2,0.1,0.3,0.1h0.9c0,0.7-0.1,1.4-0.3,2.1c-0.3,0.8-0.8,1.5-1.5,2C62,45.8,62,45.9,62,46.1c0,0.1,0.1,0.2,0.2,0.3l0.6,0.5
	c0.1,0.1,0.1,0.1,0.2,0.1c0.1,0,0.2,0,0.2-0.1c1-0.7,1.7-1.7,2-2.9c0.2-1.1,0.3-2.2,0.3-3.2C65.5,40.6,65.5,40.5,65.4,40.5z"/>
<polygon class="st0" points="11.8,48.4 12,49.3 11.8,50.2 11.4,51 10.7,51.8 9.9,52.1 9.1,52.6 8.2,52.9 7.3,52.8 6.3,52.7 
	5.6,52.1 5.4,51.1 5.7,50.2 6.1,49.4 6.8,48.8 7.5,48.2 8.3,47.7 9.3,47.7 10.2,47.6 11.1,47.8 "/>
<polygon class="st0" points="97.9,54.2 97.2,54.7 96.3,54.5 95.4,54.2 94.6,53.8 94,53.1 93.4,52.4 92.9,51.6 92.7,50.7 92.8,49.8 
	93.3,49 94.1,48.7 95,48.7 95.9,49 96.7,49.4 97.3,50.2 97.9,50.8 98.3,51.7 98.6,52.5 98.5,53.5 "/>
<polygon class="st0" points="23.4,77.7 22.6,78 21.6,77.7 20.7,77.1 19.9,76.2 19.1,75.3 18.5,74.2 18.2,73.1 18,71.9 18.2,71 
	18.6,70.4 19.4,70.1 20.4,70.5 21.3,71.1 22.1,71.9 22.8,72.9 23.5,73.9 23.7,75 23.9,76.1 23.9,77.1 "/>
<polygon class="st0" points="76.7,79.3 77.5,79.5 78.2,80.2 78.6,81.2 78.8,82.4 79.1,83.6 78.9,84.8 78.6,85.9 78.3,87 77.6,87.7 
	76.9,88 76.1,87.9 75.5,87 75.1,86 74.7,84.9 74.6,83.7 74.6,82.5 75,81.4 75.4,80.4 75.9,79.6 "/>
<path class="st0" d="M53.1,59.7c-1,0-2-0.4-2.8-1l0,0c-0.3-0.3-0.6-0.6-0.8-1l0,0c-0.2,0.3-0.4,0.5-0.7,0.8l0,0
	c-0.6,0.6-1.4,0.9-2.3,0.9l0,0c-0.6,0-1.3-0.2-1.8-0.5l0,0c-0.5-0.3-1-0.7-1.3-1.2l0,0c-0.2-0.3-0.3-0.7-0.3-1.1l0,0
	c0-0.3,0.1-0.7,0.3-0.9l0,0c0.2-0.3,0.6-0.4,0.9-0.2c0,0,0,0,0,0l0,0c0.3,0.2,0.4,0.6,0.2,0.9c0,0,0,0,0,0l0,0
	c0,0.1-0.1,0.2-0.1,0.3l0,0c0,0.2,0.1,0.3,0.1,0.4l0,0c0.1,0.2,0.3,0.4,0.5,0.5l0,0c0.4,0.3,0.9,0.5,1.5,0.5l0,0
	c0.5,0,1-0.2,1.3-0.5l0,0c0.6-0.6,1-1.4,1.2-2.2l0,0c0.1-0.3,0.4-0.6,0.8-0.5l0,0c0.3,0.1,0.6,0.4,0.5,0.8l0,0c0,0.1,0,0.2,0,0.4
	l0,0c0,0.7,0.3,1.3,0.8,1.8l0,0c0.5,0.4,1.2,0.7,1.9,0.7l0,0c0.5,0,1-0.1,1.4-0.4l0,0c0.5-0.3,0.8-0.8,1-1.3l0,0
	c0.1-0.3,0.5-0.5,0.9-0.4l0,0c0.3,0.1,0.5,0.5,0.4,0.9l0,0c-0.3,0.8-0.8,1.5-1.6,2l0,0C54.6,59.5,53.8,59.8,53.1,59.7L53.1,59.7z"/>
<path class="st2" d="M74.2,27.9C74.1,27.6,74,27.3,74,27c0-0.3,0-0.6,0-0.9s0-0.6,0-0.9s-0.3-0.6-0.4-0.9c0-0.3-0.1-0.6-0.2-0.9
	c0-0.3-0.1-0.6-0.2-0.9c-0.1-0.3-0.3-0.6-0.4-0.8c-0.2-0.2-0.5-0.3-0.8-0.5c-0.2-0.2-0.5-0.4-0.8-0.6c-0.3-0.1-0.6-0.2-0.9-0.3
	c-0.3-0.1-0.6-0.1-0.9,0c-0.3,0-0.6,0.1-0.9,0.2c-0.3,0.2-0.5,0.4-0.7,0.6c-0.2,0.2-0.4,0.4-0.6,0.7c-0.2,0.2-0.3,0.5-0.5,0.8
	c-0.2,0.3-0.3,0.5-0.5,0.8c-0.2,0.2-0.4,0.5-0.6,0.7c-0.2,0.2-0.4,0.5-0.6,0.6c-0.2,0.2-0.4,0.5-0.5,0.8c-0.1,0.2-0.3,0.5-0.4,0.8
	c-0.2,0.3-0.1,0.6-0.2,0.9s-0.4,0.5-0.5,0.8s-0.2,0.6-0.3,0.9c-0.1,0.3-0.2,0.5-0.3,0.8c0,0.3-0.2,0.6-0.2,0.8
	c0.1,0.3,0.2,0.6,0.3,0.8c0.1,0.2,0.3,0.5,0.5,0.6c0.2,0.2,0.4,0.4,0.6,0.5c0.2,0.2,0.5,0.3,0.8,0.4c0.2,0.1,0.5,0.1,0.8,0.2
	c0.3,0,0.5-0.1,0.8-0.1c0.3,0,0.6,0.2,0.8,0.2c0.3,0,0.6,0,0.8,0c0.3-0.1,0.5-0.1,0.8-0.2c0.3-0.1,0.5-0.1,0.8-0.2
	c0.5-0.1,1.1-0.3,1.5-0.6c0.2-0.2,0.4-0.4,0.6-0.6c0.2-0.2,0.4-0.3,0.6-0.5s0.3-0.5,0.4-0.8c0.2-0.2,0.4-0.4,0.6-0.6
	c0.1-0.3,0.3-0.5,0.4-0.7C74.1,28.3,74.2,28.3,74.2,27.9z"/>
<path class="st0" d="M67.4,33.7L67.4,33.7c-0.3,0-0.5-0.1-0.7-0.1c-0.1,0-0.2-0.1-0.3-0.1c-0.1,0-0.2,0-0.3,0c-0.2,0-0.4,0-0.6,0
	h-0.1c-0.3,0-0.6-0.1-0.8-0.2c-0.2-0.1-0.5-0.2-0.7-0.3l-0.2-0.1c-0.3-0.1-0.5-0.3-0.7-0.5l-0.2-0.1c-0.3-0.2-0.5-0.5-0.6-0.8
	c0-0.1,0-0.1-0.1-0.2C62.1,31,62,30.8,62,30.5c0-0.2,0-0.5,0.1-0.7c0-0.1,0.1-0.1,0.1-0.2c0-0.3,0.1-0.7,0.3-1
	c0-0.1,0.1-0.2,0.1-0.3c0-0.2,0.1-0.4,0.2-0.6c0.1-0.2,0.2-0.3,0.3-0.5c0.1-0.1,0.2-0.2,0.2-0.3c0-0.1,0-0.2,0-0.3
	c0-0.2,0.1-0.5,0.2-0.7l0.4-0.8c0.2-0.4,0.4-0.7,0.7-1c0.2-0.1,0.3-0.3,0.5-0.5l0.3-0.3c0.1-0.1,0.2-0.2,0.3-0.4s0.1-0.2,0.2-0.3
	l0.3-0.4c0.1-0.1,0.2-0.2,0.2-0.3c0.1-0.1,0.2-0.3,0.3-0.4c0.2-0.2,0.4-0.4,0.6-0.6l0.1-0.1c0.3-0.3,0.6-0.5,0.9-0.7
	c0.3-0.1,0.6-0.2,0.9-0.2h0.2l0,0c0.4-0.1,0.7-0.1,1.1,0c0.3,0.1,0.7,0.2,1,0.4c0.2,0.1,0.4,0.2,0.6,0.4l0.3,0.2l0.2,0.1
	c0.3,0.1,0.5,0.3,0.7,0.5c0.2,0.2,0.3,0.5,0.4,0.7l0.1,0.2c0.1,0.2,0.2,0.5,0.3,0.7c0,0.1,0,0.2,0.1,0.3c0.1,0.2,0.1,0.5,0.1,0.7
	c0,0.1,0,0.2,0,0.2c0,0.1,0.1,0.1,0.1,0.2c0.1,0.2,0.2,0.4,0.3,0.7c0,0.2,0,0.4,0,0.6c0,0.1,0,0.2,0,0.3s0,0.4,0,0.5V27
	c0,0.2,0.1,0.5,0.1,0.7c0,0.1,0,0.2,0,0.3c0,0.3-0.1,0.5-0.2,0.8c0,0.1-0.1,0.1-0.1,0.3c-0.1,0.2-0.2,0.4-0.3,0.5l-0.2,0.3
	c-0.1,0.2-0.2,0.4-0.4,0.5c-0.1,0.1-0.1,0.1-0.2,0.2c0,0.1-0.1,0.1-0.1,0.2c-0.1,0.2-0.2,0.5-0.4,0.6c-0.1,0.1-0.2,0.2-0.4,0.3
	l-0.3,0.2c-0.1,0.1-0.1,0.1-0.2,0.2c-0.1,0.2-0.3,0.3-0.5,0.4c-0.2,0.1-0.4,0.2-0.6,0.3l-0.2,0.1c-0.2,0.1-0.4,0.2-0.6,0.2l-0.3,0.1
	c-0.3,0.1-0.6,0.2-0.9,0.2l-0.2,0.1c-0.2,0.1-0.4,0.1-0.6,0.1h-0.2C67.8,33.6,67.6,33.7,67.4,33.7z M66.4,32.2h0.1
	c0.2,0,0.4,0.1,0.6,0.1l0.2,0.1h0.5h0.3c0.1,0,0.2-0.1,0.3-0.1c0.1,0,0.3-0.1,0.4-0.1c0.2,0,0.5-0.1,0.7-0.2l0.4-0.1
	c0.1,0,0.2,0,0.3-0.1l0.3-0.1c0.1-0.1,0.3-0.1,0.4-0.2c0.1-0.1,0.2-0.2,0.3-0.3l0.3-0.3l0.3-0.3c0.1-0.1,0.2-0.2,0.3-0.2
	c0-0.1,0.1-0.1,0.1-0.2c0.1-0.2,0.1-0.3,0.2-0.5c0.1-0.1,0.2-0.2,0.3-0.4c0.1-0.1,0.1-0.1,0.2-0.2c0.1-0.1,0.2-0.3,0.2-0.4
	c0.1-0.1,0.1-0.2,0.2-0.3c0-0.1,0.1-0.2,0.2-0.4c0,0,0-0.1,0-0.2c-0.1-0.3-0.2-0.7-0.2-1c0-0.1,0-0.3,0-0.4v-0.5c0-0.1,0-0.3,0-0.4
	c0-0.1,0-0.3,0-0.4c0-0.1,0-0.2-0.1-0.2c-0.1-0.2-0.2-0.4-0.3-0.6c0-0.1,0-0.2,0-0.3c0-0.2-0.1-0.4-0.1-0.6s-0.1-0.3-0.1-0.4
	c0-0.1,0-0.2-0.1-0.4c0-0.1-0.1-0.2-0.1-0.2c-0.1-0.2-0.1-0.3-0.2-0.5c-0.1-0.1-0.2-0.1-0.3-0.1c-0.1-0.1-0.3-0.1-0.4-0.2l-0.3-0.2
	c-0.1-0.1-0.3-0.2-0.4-0.3c-0.2-0.1-0.5-0.2-0.7-0.3c-0.2,0-0.5,0-0.7,0l0,0h-0.3c-0.2,0-0.3,0-0.5,0.1c-0.2,0.1-0.4,0.3-0.6,0.5
	l-0.1,0.1c-0.2,0.2-0.3,0.3-0.5,0.5c-0.1,0.1-0.2,0.2-0.2,0.3c-0.1,0.1-0.2,0.3-0.3,0.4C67.1,23,67,23.2,67,23.3
	c-0.1,0.1-0.2,0.3-0.3,0.4s-0.2,0.3-0.3,0.4l-0.2,0.3c-0.2,0.3-0.4,0.5-0.7,0.7c-0.1,0.2-0.3,0.4-0.4,0.6c-0.1,0.2-0.3,0.5-0.4,0.8
	c0,0.1,0,0.2,0,0.2c0,0.2-0.1,0.4-0.2,0.6c-0.1,0.2-0.2,0.3-0.3,0.5C64,28,64,28.1,63.9,28.1c0,0.1-0.1,0.3-0.1,0.4
	c0,0.2-0.1,0.3-0.1,0.4c-0.1,0.2-0.2,0.4-0.2,0.6c0,0.2-0.1,0.4-0.1,0.6c0,0.1,0,0.1-0.1,0.2c0,0.1,0.1,0.3,0.2,0.4
	c0,0.1,0.1,0.1,0.1,0.2c0.1,0.1,0.2,0.2,0.3,0.3l0.2,0.2c0.1,0.1,0.3,0.2,0.4,0.3c0.1,0.1,0.2,0.1,0.3,0.2c0.1,0.1,0.2,0.1,0.3,0.2
	c0.2,0.1,0.4,0.1,0.7,0.1h0.1c0.1,0,0.1,0,0.2,0C66.2,32.2,66.3,32.2,66.4,32.2z M65.4,25.2L65.4,25.2z"/>
<path class="st2" d="M73.6,32.2c0,0.1,0,0.4,0,0.8c0,0.2-0.1,0.5-0.2,0.8s-0.2,0.5-0.3,0.8c0,0.3,0.1,0.6,0,0.8s-0.1,0.6-0.1,0.8
	c0,0.3,0.1,0.5,0.2,0.8c0.1,0.3,0.1,0.5,0.2,0.8c0.1,0.3,0.2,0.5,0.3,0.8c0.1,0.3,0.3,0.5,0.4,0.7c0.2,0.2,0.4,0.4,0.6,0.6
	c0.2,0.2,0.5,0.3,0.7,0.5c0.3,0.1,0.5,0.2,0.8,0.1c0.3,0,0.5-0.2,0.8-0.3s0.6,0,0.8-0.2c0.3-0.2,0.5-0.3,0.7-0.5s0.4-0.4,0.7-0.5
	s0.3-0.5,0.6-0.7s0.4-0.4,0.6-0.6c0.2-0.2,0.4-0.4,0.6-0.6l0.6-0.6l0.6-0.6c0.2-0.2,0.6-0.3,0.7-0.5l0.6-0.6l0.6-0.7
	c0.2-0.2,0.3-0.5,0.5-0.8s0.3-0.5,0.4-0.7s0.5-0.4,0.6-0.7c0.1-0.3,0.1-0.6,0.1-0.9c0.1-0.3,0.1-0.6,0.1-0.9c0-0.3-0.1-0.5-0.2-0.8
	c-0.1-0.3-0.2-0.5-0.3-0.8c-0.2-0.2-0.4-0.4-0.6-0.6c-0.2-0.1-0.5-0.3-0.7-0.3c-0.2-0.1-0.5-0.2-0.7-0.3c-0.3-0.1-0.5-0.1-0.8-0.1
	c-0.2,0-0.5-0.2-0.8-0.2s-0.5,0.2-0.8,0.2s-0.6,0-0.8,0s-0.6,0.1-0.8,0.1c-0.3,0-0.6,0.1-0.8,0.1c-0.3,0-0.5,0.1-0.8,0.2
	c-0.3,0.1-0.6,0.2-0.9,0.3c-0.5,0.2-0.6,0-0.9,0.3s-0.1,0.5-0.3,0.9c-0.2,0.4-0.3,0.3-0.6,0.7s-0.1,0.4-0.3,0.8s-0.3,0.3-0.6,0.7
	C73.9,31.7,73.8,31.9,73.6,32.2z"/>
<path class="st0" d="M76.4,41.2L76.4,41.2c-0.4,0-0.8-0.1-1.1-0.2c-0.3-0.1-0.6-0.3-0.9-0.6c-0.2-0.2-0.5-0.4-0.7-0.7
	c-0.1-0.2-0.2-0.4-0.3-0.6L73.3,39c-0.1-0.2-0.2-0.5-0.3-0.7v-0.1c-0.1-0.2-0.1-0.4-0.2-0.7c0-0.1,0-0.2,0-0.2c0-0.1,0-0.1,0-0.2
	c-0.1-0.2-0.1-0.5-0.2-0.8c0-0.2,0-0.4,0-0.6c0-0.1,0-0.2,0-0.3c0-0.1,0-0.2,0-0.3c0-0.2,0-0.4,0-0.6c0-0.2,0.1-0.4,0.2-0.6
	c0-0.1,0.1-0.2,0.1-0.2c0-0.2,0.1-0.4,0.1-0.5c0-0.1,0-0.2,0.1-0.3c0-0.2,0-0.3,0-0.5c0-0.1,0-0.3,0-0.4c0,0,0-0.1,0-0.1l0.1-0.2
	c0.1-0.2,0.2-0.4,0.4-0.6c0.1-0.2,0.3-0.3,0.4-0.4c0.1,0,0.1-0.1,0.2-0.2c0-0.1,0.1-0.1,0.1-0.2c0-0.2,0.1-0.4,0.3-0.6
	c0.1-0.2,0.2-0.4,0.4-0.5c0.1-0.1,0.1-0.1,0.2-0.2c0-0.1,0-0.1,0-0.2c0-0.3,0.1-0.6,0.3-0.8c0.2-0.3,0.5-0.4,0.9-0.4
	c0.1,0,0.2,0,0.3-0.1c0.2-0.1,0.4-0.2,0.6-0.2l0.3-0.1c0.3-0.1,0.6-0.2,0.9-0.2l0.8-0.1l0.3-0.1c0.2,0,0.4-0.1,0.5-0.1
	c0.2,0,0.4,0,0.5,0c0.1,0,0.2,0,0.3,0c0.1,0,0.2,0,0.3-0.1c0.2-0.1,0.4-0.1,0.6-0.1c0.2,0,0.5,0.1,0.7,0.2c0,0,0.1,0,0.2,0.1
	c0.3,0,0.6,0.1,0.9,0.2c0.3,0.1,0.6,0.2,0.8,0.4l0.2,0.1c0.2,0.1,0.5,0.2,0.7,0.3l0.1,0.1c0.2,0.2,0.4,0.4,0.6,0.6
	c0.1,0.2,0.3,0.5,0.3,0.8v0.1c0.1,0.3,0.2,0.6,0.2,0.9c0,0.3,0,0.6-0.1,0.8c0,0.1,0,0.1,0,0.2c0,0.1,0,0.2,0,0.3
	c0,0.3,0,0.5-0.1,0.8c-0.1,0.2-0.3,0.4-0.5,0.6c-0.1,0-0.1,0.1-0.2,0.2l-0.2,0.3c-0.1,0.2-0.2,0.4-0.3,0.5C85,34,85,34.1,84.9,34.2
	c-0.1,0.2-0.2,0.3-0.3,0.5l-0.2,0.2L84,35.3l-0.2,0.3L83.5,36c-0.1,0.1-0.3,0.3-0.5,0.3c-0.1,0-0.2,0.1-0.2,0.2l-0.3,0.4
	c-0.1,0.1-0.2,0.2-0.3,0.3l-0.1,0.1c-0.2,0.2-0.3,0.3-0.5,0.5l-0.5,0.5l-0.2,0.1l-0.2,0.2c-0.1,0.1-0.3,0.3-0.4,0.4
	c-0.1,0.1-0.1,0.1-0.2,0.2c-0.1,0.2-0.2,0.3-0.4,0.5l-0.2,0.2c-0.2,0.1-0.3,0.3-0.5,0.4l-0.2,0.1c-0.2,0.2-0.4,0.3-0.6,0.4
	c-0.2,0.1-0.5,0.2-0.7,0.2c-0.1,0-0.1,0-0.2,0c-0.1,0-0.1,0.1-0.2,0.1C76.9,41.1,76.7,41.2,76.4,41.2z M74.2,32.4L74.2,32.4
	c0,0.3,0,0.5,0,0.8c0,0.1,0,0.2-0.1,0.3C74.1,33.7,74,33.8,74,34c0,0.2-0.1,0.3-0.2,0.5c0,0.1-0.1,0.2-0.1,0.3c0,0.1,0,0.2,0,0.3
	c0,0.2,0,0.3,0,0.5v0.3c0,0.1,0,0.3,0,0.4c0,0.2,0.1,0.3,0.1,0.5l0.1,0.2c0,0.1,0.1,0.2,0.1,0.3c0,0.1,0.1,0.3,0.1,0.4l0.1,0.1
	c0.1,0.2,0.1,0.4,0.2,0.5l0.2,0.3c0.1,0.1,0.1,0.3,0.2,0.4c0.2,0.2,0.3,0.4,0.5,0.5c0.2,0.1,0.4,0.3,0.6,0.4
	c0.2,0.1,0.4,0.1,0.6,0.1l0.2-0.1c0.1-0.1,0.2-0.1,0.4-0.2c0.2-0.1,0.3-0.1,0.5-0.1c0.1,0,0.2,0,0.2,0c0.2-0.1,0.3-0.2,0.5-0.3
	l0.2-0.1c0.1-0.1,0.3-0.2,0.4-0.3l0.3-0.2c0.1-0.1,0.1-0.1,0.2-0.2c0.1-0.2,0.2-0.3,0.4-0.4l0.4-0.4l0.2-0.2l0.2-0.2l0.4-0.4
	l0.5-0.5l0.1-0.1l0.3-0.3l0.3-0.3c0.2-0.2,0.3-0.3,0.5-0.4l0.2-0.1l0.3-0.4l0.3-0.3l0.4-0.4l0.2-0.2c0.1-0.1,0.1-0.2,0.2-0.3
	c0.1-0.2,0.2-0.3,0.3-0.5c0.1-0.1,0.2-0.3,0.3-0.4c0-0.1,0.1-0.2,0.2-0.3c0.1-0.2,0.3-0.3,0.4-0.5c0,0,0.1-0.1,0.2-0.2
	c0-0.1,0-0.2,0-0.3c0-0.1,0-0.3,0-0.4l0.1-0.3c0-0.1,0.1-0.3,0.1-0.4c0-0.2-0.1-0.5-0.1-0.7v-0.1c0-0.2-0.1-0.4-0.2-0.6
	c-0.1-0.1-0.2-0.2-0.3-0.3l-0.2-0.1c-0.1,0-0.2-0.1-0.2-0.1c-0.1,0-0.3-0.1-0.4-0.2c-0.2-0.1-0.4-0.2-0.6-0.3
	c-0.2-0.1-0.4-0.1-0.6-0.1c-0.2,0-0.4-0.1-0.5-0.1c-0.1,0-0.2-0.1-0.3-0.1l0,0l-0.2,0.1c-0.2,0.1-0.4,0.1-0.6,0.1
	c-0.2,0-0.3,0-0.5,0h-0.3l-0.4,0.1c-0.1,0-0.3,0.1-0.4,0.1l-0.8,0.1c-0.2,0-0.5,0.1-0.7,0.2l-0.3,0.1c-0.2,0.1-0.4,0.1-0.5,0.2
	c-0.2,0.1-0.4,0.1-0.7,0.2l0,0l0,0l0,0c0,0,0,0,0,0.1c0,0.2-0.1,0.5-0.2,0.7c-0.1,0.2-0.2,0.3-0.4,0.5c-0.1,0.1-0.1,0.1-0.2,0.2
	c0,0.1-0.1,0.1-0.1,0.2c0,0.2-0.1,0.4-0.2,0.6c-0.1,0.2-0.3,0.4-0.4,0.5c-0.1,0.1-0.1,0.1-0.2,0.2c-0.1,0.1-0.2,0.3-0.3,0.5
	C74.3,32.2,74.3,32.3,74.2,32.4z"/>
<radialGradient id="SVGID_1_" cx="29.88" cy="45.13" r="5.09" gradientTransform="matrix(1 0 0 -1 0 102)" gradientUnits="userSpaceOnUse">
	<stop  offset="0" style="stop-color:#FBF0F5"/>
	<stop  offset="1" style="stop-color:#E96BA2"/>
</radialGradient>
<path class="st3" d="M35,56.9c0,2.8-2.3,5.1-5.1,5.1s-5.1-2.3-5.1-5.1s2.3-5.1,5.1-5.1l0,0C32.7,51.8,35,54.1,35,56.9z"/>
<radialGradient id="SVGID_2_" cx="73.12" cy="42.33" r="5.09" gradientTransform="matrix(1 0 0 -1 0 102)" gradientUnits="userSpaceOnUse">
	<stop  offset="0" style="stop-color:#FBF0F5"/>
	<stop  offset="1" style="stop-color:#E96BA2"/>
</radialGradient>
<path class="st4" d="M78.2,59.7c0,2.8-2.3,5.1-5.1,5.1c-2.8,0-5.1-2.3-5.1-5.1c0-2.8,2.3-5.1,5.1-5.1S78.2,56.9,78.2,59.7L78.2,59.7
	z"/>
<path class="st5" d="M80.6,53.2c1-0.2,1.7-1.3,1.5-2.3c-0.1-0.5-0.4-1-0.9-1.2c-1-0.5-2.9,0.1-4.2,1.3c-0.6,0.5-1.1,1.1-1.4,1.8
	C76.1,54,77,55.1,78,56c1.5,1.5,2.8,1.2,3.4,0.2C82,55.2,81.6,53.8,80.6,53.2z"/>
<path class="st6" d="M80,57.3c-0.9-0.1-1.6-0.5-2.2-1.1l0,0c-1-0.9-1.9-2.1-2.4-3.4l0,0c0-0.1,0-0.1,0-0.2l0,0
	c0-0.1,0.2-0.7,1.5-1.9l0,0c0.9-0.9,2.2-1.5,3.5-1.5l0,0c0.3,0,0.7,0.1,1,0.2l0,0c0.7,0.4,1.1,1.1,1.1,1.9l0,0
	c0,0.8-0.5,1.6-1.3,1.9l0,0c0.5,0.5,0.8,1.2,0.8,1.9l0,0c0,0.4-0.1,0.9-0.3,1.2l0,0C81.3,56.9,80.7,57.3,80,57.3L80,57.3z
	 M78.2,55.8c0.4,0.5,1.1,0.9,1.8,1l0,0c0.5,0,0.9-0.2,1.2-0.7l0,0c0.2-0.3,0.3-0.6,0.3-1l0,0c0-0.7-0.4-1.3-0.9-1.8l0,0l0.2-0.2
	l0.1,0.3l-0.1-0.3l-0.2,0.2c-0.1-0.1-0.1-0.2-0.1-0.3l0,0c0-0.1,0.1-0.2,0.2-0.2l0,0c0.8-0.1,1.3-0.8,1.3-1.6l0,0
	c0-0.6-0.3-1.1-0.8-1.4l0,0c-0.2-0.1-0.5-0.2-0.8-0.2l0,0c-1.2,0.1-2.3,0.6-3.1,1.4l0,0c-0.5,0.4-1,1-1.3,1.6l0,0
	C76.4,53.9,77.2,54.9,78.2,55.8L78.2,55.8z"/>
<path class="st5" d="M74.9,58.6c0.3,1,1.4,1.6,2.4,1.3c0.5-0.1,0.9-0.5,1.2-1c0.5-1-0.3-2.9-1.6-4.1c-0.5-0.6-1.2-1-1.9-1.3
	c-1.2,0.6-2.3,1.5-3.1,2.6c-1.4,1.6-0.9,2.9,0,3.4C73,60.1,74.3,59.7,74.9,58.6z"/>
<path class="st6" d="M74.8,59.1c-0.5,0.6-1.2,0.9-2,0.9l0,0c-0.4,0-0.7-0.1-1.1-0.3l0,0c-0.7-0.3-1.1-1-1.1-1.7l0,0
	c0-0.8,0.4-1.6,1-2.1l0,0c0.8-1.1,1.9-2,3.2-2.7l0,0c0.1,0,0.1,0,0.2,0l0,0c0.8,0.3,1.4,0.8,2,1.4l0,0c1,0.9,1.7,2.2,1.8,3.6l0,0
	c0,0.3,0,0.6-0.2,0.8l0,0c-0.4,0.8-1.2,1.2-2,1.2l0,0C75.9,60.3,75.2,59.8,74.8,59.1L74.8,59.1z M74.9,58.4c0.1,0,0.2,0.1,0.2,0.2
	l0,0c0.2,0.7,0.8,1.2,1.5,1.2l0,0c0.6,0,1.2-0.3,1.5-0.9l0,0c0.1-0.2,0.1-0.4,0.1-0.6l0,0c-0.1-1.2-0.7-2.4-1.6-3.2l0,0
	c-0.5-0.5-1.1-0.9-1.7-1.2l0,0c-1.1,0.6-2.1,1.5-2.9,2.5l0,0c-0.5,0.5-0.8,1.1-0.8,1.8l0,0c0,0.5,0.3,1,0.7,1.2l0,0
	c0.3,0.1,0.5,0.2,0.8,0.2l0,0c0.7,0,1.4-0.4,1.8-1.1l0,0C74.7,58.4,74.8,58.4,74.9,58.4L74.9,58.4L74.9,58.4z"/>
<path class="st5" d="M69.1,52.5c-1,0.2-1.7,1.2-1.5,2.3c0.1,0.5,0.4,1,0.9,1.2c1,0.5,2.9-0.1,4.2-1.3c0.6-0.5,1.1-1.1,1.4-1.7
	c-0.5-1.3-1.4-2.4-2.4-3.3c-1.5-1.5-2.8-1.1-3.4-0.2C67.8,50.5,68.1,51.8,69.1,52.5z"/>
<path class="st6" d="M68.4,56.3c-0.7-0.4-1.1-1.1-1.1-1.9l0,0c0-0.8,0.5-1.6,1.3-1.9l0,0c-0.5-0.5-0.8-1.2-0.8-1.9l0,0
	c0-0.4,0.1-0.9,0.3-1.2l0,0c0.3-0.6,1-0.9,1.6-0.9l0,0c0.8,0.1,1.6,0.5,2.2,1.1l0,0c1.1,0.9,1.9,2.1,2.4,3.4l0,0c0,0.1,0,0.1,0,0.2
	l0,0c-0.3,0.8-0.9,1.4-1.5,1.9l0,0c-0.9,0.9-2.2,1.5-3.5,1.5l0,0C69,56.5,68.7,56.4,68.4,56.3L68.4,56.3z M72.5,54.5
	c0.5-0.4,1-1,1.3-1.5l0,0c-0.5-1.2-1.3-2.2-2.3-3.1l0,0c-0.4-0.6-1.1-0.9-1.8-1l0,0c-0.5,0-0.9,0.3-1.2,0.7l0,0
	c-0.2,0.3-0.3,0.6-0.3,1l0,0c0,0.7,0.4,1.4,0.9,1.8l0,0l-0.2,0.2l0.2-0.2c0.1,0.1,0.1,0.2,0.1,0.3l0,0c0,0.1-0.1,0.2-0.2,0.2l0,0
	c-0.8,0.1-1.3,0.8-1.3,1.6l0,0c0,0.6,0.3,1.1,0.8,1.5l0,0c0.2,0.1,0.5,0.2,0.8,0.2l0,0C70.6,55.9,71.7,55.4,72.5,54.5L72.5,54.5z"/>
<path class="st5" d="M75,47.1c-0.3-1-1.4-1.6-2.4-1.3c-0.5,0.2-0.9,0.5-1.2,1c-0.5,1,0.3,2.9,1.6,4.1c0.5,0.6,1.2,1,2,1.3
	c1.2-0.6,2.3-1.5,3.1-2.6c1.4-1.6,0.9-2.9,0-3.4C77,45.6,75.6,46,75,47.1z"/>
<path class="st6" d="M74.9,52.5c-0.8-0.3-1.4-0.8-2-1.4l0,0c-1-0.9-1.7-2.2-1.8-3.6l0,0c0-0.3,0-0.6,0.2-0.8l0,0
	c0.4-0.8,1.2-1.2,2-1.2l0,0c0.8,0,1.5,0.4,1.9,1.1l0,0c0.5-0.6,1.2-0.9,2-1l0,0c0.4,0,0.7,0.1,1.1,0.3l0,0c0.6,0.3,1,1,1,1.7l0,0
	c0,0.8-0.4,1.5-0.9,2.1l0,0c-0.8,1.1-1.9,2-3.2,2.7l0,0C75,52.4,75,52.4,74.9,52.5L74.9,52.5L74.9,52.5z M71.7,46.9
	c-0.1,0.2-0.1,0.4-0.1,0.6l0,0c0.1,1.2,0.7,2.4,1.6,3.2l0,0c0.5,0.5,1.1,0.9,1.7,1.2l0,0c1.1-0.6,2.1-1.5,2.9-2.5l0,0
	c0.5-0.5,0.8-1.1,0.8-1.8l0,0c0-0.5-0.3-1-0.8-1.2l0,0c-0.3-0.1-0.5-0.2-0.8-0.2l0,0c-0.7,0-1.4,0.4-1.8,1.1l0,0
	c-0.1,0.1-0.2,0.1-0.3,0.1l0,0c-0.1,0-0.2-0.1-0.2-0.2l0,0C74.6,46.5,74,46,73.2,46l0,0C72.6,46,72,46.3,71.7,46.9L71.7,46.9z
	 M75,47.1l0.3-0.1L75,47.1z"/>
<path class="st2" d="M69.1,27.3c1.5-0.5,3.1,0.4,3.5,1.8c0.1,0.3,0.1,0.6,0.1,0.9"/>
<path class="st0" d="M72.8,30.5c-0.2,0-0.4-0.2-0.4-0.4c0-0.9-0.5-1.7-1.2-2.2c-0.6-0.4-1.3-0.5-1.9-0.2c-0.2,0.1-0.4,0-0.5-0.2
	c0,0,0,0,0,0c-0.1-0.2,0.1-0.4,0.3-0.5c0.9-0.4,1.9-0.2,2.7,0.3c1,0.6,1.5,1.7,1.6,2.8C73.2,30.3,73.1,30.5,72.8,30.5L72.8,30.5z"/>
<path class="st2" d="M74.9,30.8c1.3-0.6,2.9-0.1,3.5,1.2c0.1,0.3,0.2,0.6,0.3,1"/>
<path class="st0" d="M78.6,33.4c-0.2,0-0.4-0.2-0.4-0.4c-0.1-0.8-0.5-1.4-1.2-1.8c-0.6-0.3-1.4-0.3-2,0c-0.2,0.1-0.4,0-0.5-0.2
	c-0.1-0.2,0-0.4,0.2-0.5c0.9-0.5,1.9-0.4,2.8,0.1c0.8,0.5,1.4,1.4,1.5,2.4C79,33.2,78.9,33.4,78.6,33.4
	C78.6,33.4,78.6,33.4,78.6,33.4L78.6,33.4z"/>
<path class="st2" d="M74.7,27.5c-0.2-0.2-0.5-0.3-0.8-0.3c-0.3,0-0.6,0.3-0.7,0.6c-0.1,0.2-0.3,0.4-0.4,0.7
	c-0.2,0.3-0.3,0.5-0.4,0.7c-0.1,0.3-0.2,0.5-0.3,0.8c-0.1,0.3-0.1,0.5-0.2,0.8c-0.1,0.3,0,0.5,0.2,0.8c0.2,0.2,0.3,0.4,0.5,0.6
	c0.2,0.2,0.5,0.3,0.8,0.3c0.3,0,0.6,0,0.8-0.1c0.2-0.1,0.4-0.3,0.6-0.5c0.2-0.2,0.4-0.4,0.5-0.6c0.2-0.2,0.2-0.5,0.4-0.7
	c0.1-0.2,0.3-0.4,0.4-0.7c0.1-0.3,0.2-0.5,0.3-0.8c0.1-0.3,0.1-0.6-0.1-0.9c-0.2-0.2-0.4-0.4-0.8-0.5C75.2,27.7,75,27.6,74.7,27.5z"
	/>
<path class="st0" d="M73.5,33.1c-0.1,0-0.2,0-0.3,0c-0.4-0.1-0.7-0.2-1-0.4c-0.2-0.2-0.4-0.4-0.5-0.6L71.6,32
	c-0.3-0.3-0.4-0.8-0.3-1.3v-0.1c0-0.3,0.1-0.6,0.2-0.8c0.1-0.3,0.2-0.6,0.3-0.8l0.3-0.5l0.1-0.2c0.1-0.2,0.2-0.3,0.3-0.5l0.1-0.2
	c0.2-0.5,0.6-0.8,1.1-0.9c0.5-0.1,1,0.1,1.4,0.4l0,0c0.1,0.1,0.2,0.1,0.3,0.1l0.3,0.1c0.4,0.1,0.8,0.4,1.1,0.7
	c0.2,0.4,0.3,0.9,0.2,1.3c-0.1,0.3-0.2,0.6-0.3,0.9c-0.1,0.2-0.2,0.4-0.3,0.5l-0.2,0.2l-0.1,0.2c-0.1,0.2-0.2,0.4-0.3,0.5
	c-0.1,0.2-0.3,0.4-0.5,0.5l-0.1,0.1c-0.2,0.3-0.5,0.5-0.8,0.6C74.2,33.1,73.9,33.1,73.5,33.1z M74,27.8L74,27.8c0,0-0.2,0-0.2,0.2
	c-0.1,0.1-0.1,0.3-0.2,0.4c-0.1,0.1-0.2,0.2-0.2,0.4L73.2,29c-0.1,0.1-0.2,0.3-0.2,0.4c-0.1,0.2-0.2,0.5-0.3,0.7
	c-0.1,0.2-0.1,0.4-0.1,0.6v0.1c0,0.1,0,0.2,0,0.3l0.2,0.2c0.1,0.1,0.2,0.2,0.3,0.3c0.1,0.1,0.3,0.2,0.5,0.2c0.2,0,0.3,0,0.5-0.1
	c0.2-0.1,0.3-0.2,0.4-0.4l0.2-0.1c0.1-0.1,0.2-0.2,0.3-0.3c0.1-0.1,0.1-0.2,0.1-0.3c0-0.1,0.1-0.2,0.2-0.4l0.2-0.4
	c0.1-0.1,0.1-0.2,0.2-0.3c0.1-0.2,0.2-0.5,0.3-0.7c0.1-0.3,0-0.4,0-0.4c0,0-0.1-0.1-0.4-0.2h-0.2c-0.3-0.1-0.6-0.2-0.9-0.4
	C74.2,27.9,74.1,27.8,74,27.8L74,27.8z"/>
<path class="st0" d="M40.6,40.3h-2.2c-0.1,0-0.1,0-0.2,0c0-0.2-0.2-0.4-0.4-0.4h-0.8c-0.2,0-0.4,0.1-0.4,0.4c0,0,0,0,0,0
	c-0.1,0.8-0.3,1.7-0.7,2.4c-0.1,0.1-0.1,0.2,0,0.3c0,0.1,0.1,0.2,0.2,0.2l0.8,0.3c0.2,0.1,0.4,0,0.5-0.2c0.3-0.6,0.5-1.2,0.7-1.9
	l0,0c0.1,0.1,0.2,0.1,0.3,0.1h0.9c0,0.7-0.1,1.4-0.3,2.1c-0.3,0.8-0.8,1.5-1.5,2c-0.1,0.1-0.2,0.2-0.2,0.3c0,0.1,0.1,0.2,0.2,0.3
	l0.6,0.5c0.1,0,0.1,0.1,0.2,0.1c0.1,0,0.2,0,0.2-0.1c1-0.7,1.7-1.7,2-2.9c0.2-1.1,0.3-2.2,0.3-3.2c0-0.1,0-0.2-0.1-0.3
	C40.7,40.4,40.7,40.3,40.6,40.3z"/>
</svg>
