<svg id="群組_8" data-name="群組 8" xmlns="http://www.w3.org/2000/svg" width="42" height="42" viewBox="0 0 42 42">
  <defs>
    <style>
      .cls-1 {
        fill: #e92c0d;
      }

      .cls-2 {
        fill: #fff;
        fill-rule: evenodd;
      }
    </style>
  </defs>
  <circle id="橢圓_2" data-name="橢圓 2" class="cls-1" cx="21" cy="21" r="21"/>
  <path id="_4" data-name="4" class="cls-2" d="M140.667,330H129V314.4a2.368,2.368,0,0,1,2.333-2.4h9.334A2.368,2.368,0,0,1,143,314.4V330h-2.333Zm-9.334-14.4h-1.166v1.2h1.166v-1.2Zm0,2.4h-1.166v1.2h1.166V318Zm0,2.4h-1.166v1.2h1.166v-1.2Zm0,2.4h-1.166V324h1.166v-1.2Zm0,2.4h-1.166v1.2h1.166v-1.2Zm0,2.4h-1.166v1.2h1.166v-1.2Zm8.167-13.8a0.592,0.592,0,0,0-.583-0.6h-5.834a0.592,0.592,0,0,0-.583.6v6a0.592,0.592,0,0,0,.583.6h5.834a0.592,0.592,0,0,0,.583-0.6v-6Zm0,8.4a0.592,0.592,0,0,0-.583-0.6h-5.834a0.592,0.592,0,0,0-.583.6v6a0.592,0.592,0,0,0,.583.6h5.834a0.592,0.592,0,0,0,.583-0.6v-6Zm2.333-6.6h-1.166v1.2h1.166v-1.2Zm0,2.4h-1.166v1.2h1.166V318Zm0,2.4h-1.166v1.2h1.166v-1.2Zm0,2.4h-1.166V324h1.166v-1.2Zm0,2.4h-1.166v1.2h1.166v-1.2Zm0,2.4h-1.166v1.2h1.166v-1.2Z" transform="translate(-115 -300)"/>
</svg>
